# xmcd
#
# Track frame offsets:
#	150
#	12442
#	34158
#	56861
#	74856
#	89577
#	104707
#	123178
#	139824
#	148737
#
# Disc length: 2233 seconds
# Revision: 3
# Processed by: cddbd v1.5.2PL0 Copyright (c) Steve Scherf et al.
# Submitted via: dBpowerAMP V12.0
#
DISCID=a108b70a
DTITLE=Gary Floyd Band - Roughage
DYEAR=1996
DGENRE=Blues
TTITLE0=Caught Making Friends
TTITLE1=Spoonful
TTITLE2=The Very Thing That Makes Her Rich
TTITLE3=Honey Bee
TTITLE4=Too Much Alcohol
TTITLE5=Can`t Be Satisfied
TTITLE6=You Need a Dog
TTITLE7=Bodean
TTITLE8=Poodle Dog
TTITLE9=I Don`t Care
EXTD=
EXTT0=
EXTT1=
EXTT2=
EXTT3=
EXTT4=
EXTT5=
EXTT6=
EXTT7=
EXTT8=
EXTT9=
PLAYORDER=
